<svg width="75" height="45" viewBox="0 0 75 45" fill="none" xmlns="http://www.w3.org/2000/svg">
<path d="M54.7595 33.6197C53.0374 33.6197 51.6367 32.1267 51.6367 30.2929C51.6367 28.459 53.0374 26.9673 54.7595 26.9673C56.4818 26.9673 57.8826 28.4587 57.8826 30.2929C57.8826 32.127 56.4818 33.6197 54.7595 33.6197ZM20.2405 33.6197C18.5185 33.6197 17.1177 32.1267 17.1177 30.2929C17.1177 28.459 18.5182 26.9673 20.2405 26.9673C21.9626 26.9673 23.3633 28.4587 23.3633 30.2929C23.3633 32.127 21.9628 33.6197 20.2405 33.6197ZM55.8796 13.5857L62.1212 2.07356C62.293 1.75585 62.3395 1.37854 62.2504 1.02441C62.1612 0.670275 61.9439 0.36825 61.6459 0.184603C61.3475 0.00171675 60.9933 -0.0477007 60.6608 0.0471884C60.3282 0.142078 60.0446 0.373526 59.8721 0.690778L53.5525 12.3484C48.7194 9.99981 43.2917 8.6913 37.5 8.6913C31.7083 8.6913 26.2806 9.99981 21.4478 12.3484L15.1279 0.690778C14.9554 0.373526 14.6718 0.142078 14.3392 0.0471884C14.0067 -0.0477007 13.6525 0.00171675 13.3541 0.184603C13.056 0.368078 12.8384 0.670106 12.7493 1.02431C12.6602 1.37851 12.7068 1.75591 12.8788 2.07356L19.1204 13.5857C8.40266 19.7934 1.07238 31.3484 0 45H75C73.9268 31.3487 66.5965 19.7937 55.8796 13.5857Z" fill="#3DDB85"/>
</svg>
