<svg width="40" height="40" viewBox="0 0 40 40" fill="none" xmlns="http://www.w3.org/2000/svg">
<path d="M20 26.9584L26.5 20.5C26.8056 20.1945 27.1875 20.0347 27.6458 20.0209C28.1042 20.007 28.5 20.1667 28.8333 20.5C29.1389 20.8056 29.2917 21.1945 29.2917 21.6667C29.2917 22.1389 29.1389 22.5278 28.8333 22.8334L22.375 29.2917C21.7361 29.9306 20.9444 30.25 20 30.25C19.0556 30.25 18.2639 29.9306 17.625 29.2917L11.1667 22.8334C10.8611 22.5278 10.7014 22.1459 10.6875 21.6875C10.6736 21.2292 10.8333 20.8334 11.1667 20.5C11.4722 20.1945 11.8611 20.0417 12.3333 20.0417C12.8056 20.0417 13.1944 20.1945 13.5 20.5L20 26.9584ZM20 16.9584L26.5 10.5C26.8056 10.1945 27.1875 10.0347 27.6458 10.0209C28.1042 10.007 28.5 10.1667 28.8333 10.5C29.1389 10.8056 29.2917 11.1945 29.2917 11.6667C29.2917 12.1389 29.1389 12.5278 28.8333 12.8334L22.375 19.2917C21.7361 19.9306 20.9444 20.25 20 20.25C19.0556 20.25 18.2639 19.9306 17.625 19.2917L11.1667 12.8334C10.8611 12.5278 10.7014 12.1459 10.6875 11.6875C10.6736 11.2292 10.8333 10.8334 11.1667 10.5C11.4722 10.1945 11.8611 10.0417 12.3333 10.0417C12.8056 10.0417 13.1944 10.1945 13.5 10.5L20 16.9584Z" fill="#222222"/>
</svg>
