<svg width="220" height="110" viewBox="0 0 220 110" fill="none" xmlns="http://www.w3.org/2000/svg">
<path fill-rule="evenodd" clip-rule="evenodd" d="M10.9545 0.965675C19.536 -2.09901 28.9771 2.37294 32.0419 10.954L59.5408 87.9478C62.6056 96.5289 58.1335 105.97 49.552 109.034C40.9706 112.099 31.5294 107.627 28.4646 99.046L0.965715 22.0522C-2.09909 13.4711 2.37304 4.03036 10.9545 0.965675ZM104.451 0.965675C113.032 -2.09901 122.473 2.37294 125.538 10.954L153.037 87.9478C156.102 96.5289 151.63 105.97 143.048 109.034C134.467 112.099 125.026 107.627 121.961 99.046L94.4619 22.0522C91.3971 13.4711 95.8692 4.03036 104.451 0.965675ZM148.449 0.965675C157.03 -2.09901 166.472 2.37294 169.536 10.954L197.035 87.9478C200.1 96.5289 195.628 105.97 187.046 109.034C178.465 112.099 169.024 107.627 165.959 99.046L138.46 22.0522C135.395 13.4711 139.867 4.03036 148.449 0.965675ZM55.09 0.917326C63.6982 -2.07153 73.0995 2.48353 76.0885 11.0913L89.4719 49.6335C92.4609 58.2413 87.9056 67.6423 79.2975 70.6311C70.6893 73.62 61.2879 69.0649 58.299 60.4571L44.9156 21.915C41.9266 13.3071 46.4818 3.90618 55.09 0.917326ZM192.779 0.851153C201.424 -2.0303 210.767 2.64146 213.649 11.2858L219.149 27.7845C222.03 36.4288 217.358 45.7723 208.714 48.6538C200.069 51.5352 190.725 46.8635 187.844 38.2191L182.344 21.7205C179.462 13.0761 184.134 3.7326 192.779 0.851153Z" fill="#222222"/>
</svg>
