<svg width="200" height="100" viewBox="0 0 200 100" fill="none" xmlns="http://www.w3.org/2000/svg">
<path fill-rule="evenodd" clip-rule="evenodd" d="M9.95863 0.877886C17.76 -1.90819 26.3428 2.15722 29.129 9.95823L54.128 79.9525C56.9142 87.7535 52.8486 96.336 45.0473 99.1221C37.246 101.908 28.6631 97.8428 25.8769 90.0418L0.877922 20.0475C-1.90827 12.2465 2.15731 3.66396 9.95863 0.877886ZM94.9552 0.877886C102.756 -1.90819 111.339 2.15722 114.126 9.95823L139.125 79.9525C141.911 87.7535 137.845 96.336 130.044 99.1221C122.243 101.908 113.66 97.8428 110.873 90.0418L85.8745 20.0475C83.0883 12.2465 87.1538 3.66396 94.9552 0.877886ZM134.954 0.877886C142.755 -1.90819 151.338 2.15722 154.124 9.95823L179.123 79.9525C181.909 87.7535 177.844 96.336 170.042 99.1221C162.241 101.908 153.658 97.8428 150.872 90.0418L125.873 20.0475C123.087 12.2465 127.152 3.66396 134.954 0.877886ZM50.0818 0.833933C57.9074 -1.88321 66.4541 2.25775 69.1713 10.083L81.3381 45.1214C84.0553 52.9467 79.9142 61.493 72.0886 64.2101C64.263 66.9273 55.7163 62.7863 52.9991 54.961L40.8323 19.9227C38.1151 12.0974 42.2562 3.55108 50.0818 0.833933ZM175.254 0.773775C183.112 -1.84573 191.607 2.40132 194.226 10.2598L199.226 25.2586C201.846 33.1171 197.599 41.6112 189.74 44.2307C181.881 46.8502 173.386 42.6032 170.767 34.7447L165.767 19.7459C163.147 11.8874 167.395 3.39328 175.254 0.773775Z" fill="#EEEEEE"/>
</svg>
