<svg width="200" height="328" viewBox="0 0 200 328" fill="none" xmlns="http://www.w3.org/2000/svg">
<g clip-path="url(#clip0_628_21)">
<path d="M174.194 166.341L72.6159 57.4117C59.3687 43.1977 56.4977 24.285 63.2304 8.06689C54.8523 11.6372 46.8436 16.2012 39.4225 21.8093C-7.26994 57.0581 -13.3478 119.674 25.8227 161.676L127.401 270.588C140.648 284.802 143.536 303.715 136.786 319.933C145.165 316.363 153.173 311.799 160.611 306.191C207.287 270.959 213.382 208.343 174.211 166.341H174.194Z" fill="#EEEEEE"/>
<path d="M30.8932 268.972C15.178 280.845 13.1296 301.913 26.3096 316.06C39.4896 330.206 62.9281 332.042 78.6434 320.186C94.3586 308.313 96.407 287.244 83.227 273.098C70.047 258.951 46.6085 257.115 30.8932 268.972ZM70.3828 317.289C60.1075 327.815 44.7784 326.181 36.1484 313.635C27.5185 301.088 28.8617 282.377 39.137 271.852C49.4124 261.326 64.7414 262.959 73.3714 275.506C82.0013 288.053 80.6582 306.763 70.3828 317.289Z" fill="#EEEEEE"/>
<path d="M121.357 7.8142C105.641 19.6873 103.593 40.7557 116.773 54.9023C129.953 69.049 153.392 70.8847 169.107 59.0284C184.822 47.1553 186.87 26.0869 173.69 11.9403C160.51 -2.20633 137.072 -4.04203 121.357 7.8142ZM160.846 56.1317C150.571 66.6575 135.242 65.0239 126.612 52.4772C117.982 39.9304 119.325 21.2198 129.6 10.6941C139.876 0.16828 155.205 1.80188 163.835 14.3486C172.465 26.8953 171.122 45.606 160.846 56.1317Z" fill="#EEEEEE"/>
</g>
<defs>
<clipPath id="clip0_628_21">
<rect width="200" height="328" fill="white"/>
</clipPath>
</defs>
</svg>
